<svg xmlns="http://www.w3.org/2000/svg" xmlns:xlink="http://www.w3.org/1999/xlink" width="500" zoomAndPan="magnify" viewBox="0 0 375 374.999991" height="500" preserveAspectRatio="xMidYMid meet" version="1.0"><defs><filter x="0%" y="0%" width="100%" height="100%" id="cb0e0c6a67"><feColorMatrix values="0 0 0 0 1 0 0 0 0 1 0 0 0 0 1 0 0 0 1 0" color-interpolation-filters="sRGB"/></filter><mask id="e5b00d5122"><g filter="url(#cb0e0c6a67)"><rect x="-37.5" width="450" fill="#000000" y="-37.499999" height="449.999989" fill-opacity="0.49"/></g></mask><clipPath id="a240fa1211"><path d="M 12 8 L 96 8 L 96 98 L 12 98 Z M 12 8 " clip-rule="nonzero"/></clipPath><clipPath id="0d32a9accc"><path d="M 0.878906 23.949219 L 86.335938 0.949219 L 108.167969 82.0625 L 22.707031 105.0625 Z M 0.878906 23.949219 " clip-rule="nonzero"/></clipPath><clipPath id="ba9df95e0c"><path d="M 0.878906 23.949219 L 86.335938 0.949219 L 108.167969 82.0625 L 22.707031 105.0625 Z M 0.878906 23.949219 " clip-rule="nonzero"/></clipPath><clipPath id="0c1d766d10"><path d="M 0.878906 23.949219 L 86.335938 0.949219 L 108.167969 82.0625 L 22.707031 105.0625 Z M 0.878906 23.949219 " clip-rule="nonzero"/></clipPath><clipPath id="e3e8a2779f"><rect x="0" width="109" y="0" height="106"/></clipPath><mask id="1f4aa2ac2e"><g filter="url(#cb0e0c6a67)"><rect x="-37.5" width="450" fill="#000000" y="-37.499999" height="449.999989" fill-opacity="0.39"/></g></mask><clipPath id="b51bb8f47c"><path d="M 15 8 L 100 8 L 100 100 L 15 100 Z M 15 8 " clip-rule="nonzero"/></clipPath><clipPath id="7f51688a90"><path d="M 25.152344 0.117188 L 109.761719 26.070312 L 85.128906 106.375 L 0.519531 80.425781 Z M 25.152344 0.117188 " clip-rule="nonzero"/></clipPath><clipPath id="db4f131db6"><path d="M 25.152344 0.117188 L 109.761719 26.070312 L 85.128906 106.375 L 0.519531 80.425781 Z M 25.152344 0.117188 " clip-rule="nonzero"/></clipPath><clipPath id="9de8717c95"><path d="M 25.152344 0.117188 L 109.761719 26.070312 L 85.128906 106.375 L 0.519531 80.425781 Z M 25.152344 0.117188 " clip-rule="nonzero"/></clipPath><clipPath id="e28e0ca6a3"><rect x="0" width="111" y="0" height="105"/></clipPath><mask id="e3e429f121"><g filter="url(#cb0e0c6a67)"><rect x="-37.5" width="450" fill="#000000" y="-37.499999" height="449.999989" fill-opacity="0.66"/></g></mask><clipPath id="ca419db359"><path d="M 16 10 L 101 10 L 101 103 L 16 103 Z M 16 10 " clip-rule="nonzero"/></clipPath><clipPath id="1e722e81eb"><path d="M 28.445312 0.871094 L 111.824219 30.539062 L 83.664062 109.675781 L 0.285156 80.007812 Z M 28.445312 0.871094 " clip-rule="nonzero"/></clipPath><clipPath id="d1359d1c03"><path d="M 28.445312 0.871094 L 111.824219 30.539062 L 83.664062 109.675781 L 0.285156 80.007812 Z M 28.445312 0.871094 " clip-rule="nonzero"/></clipPath><clipPath id="79e61e4fa0"><path d="M 28.445312 0.871094 L 111.824219 30.539062 L 83.664062 109.675781 L 0.285156 80.007812 Z M 28.445312 0.871094 " clip-rule="nonzero"/></clipPath><clipPath id="2b7518fe90"><rect x="0" width="113" y="0" height="111"/></clipPath><mask id="f9768d191b"><g filter="url(#cb0e0c6a67)"><rect x="-37.5" width="450" fill="#000000" y="-37.499999" height="449.999989" fill-opacity="0.74"/></g></mask><clipPath id="3aaf84a4d8"><path d="M 11 7 L 96 7 L 96 97 L 11 97 Z M 11 7 " clip-rule="nonzero"/></clipPath><clipPath id="2c1769e42a"><path d="M 0.417969 22.519531 L 86.070312 0.246094 L 107.210938 81.542969 L 21.558594 103.816406 Z M 0.417969 22.519531 " clip-rule="nonzero"/></clipPath><clipPath id="a9d5e3600e"><path d="M 0.417969 22.519531 L 86.070312 0.246094 L 107.210938 81.542969 L 21.558594 103.816406 Z M 0.417969 22.519531 " clip-rule="nonzero"/></clipPath><clipPath id="d7ee631790"><path d="M 0.417969 22.519531 L 86.070312 0.246094 L 107.210938 81.542969 L 21.558594 103.816406 Z M 0.417969 22.519531 " clip-rule="nonzero"/></clipPath><clipPath id="6267311b30"><rect x="0" width="109" y="0" height="104"/></clipPath><clipPath id="53a4787599"><path d="M 221 27 L 306 27 L 306 119 L 221 119 Z M 221 27 " clip-rule="nonzero"/></clipPath><clipPath id="f1cef55d81"><path d="M 231.355469 19.042969 L 315.691406 45.867188 L 290.230469 125.917969 L 205.894531 99.09375 Z M 231.355469 19.042969 " clip-rule="nonzero"/></clipPath><clipPath id="09ffb983fd"><path d="M 231.355469 19.042969 L 315.691406 45.867188 L 290.230469 125.917969 L 205.894531 99.09375 Z M 231.355469 19.042969 " clip-rule="nonzero"/></clipPath><clipPath id="5592af9e87"><path d="M 231.355469 19.042969 L 315.691406 45.867188 L 290.230469 125.917969 L 205.894531 99.09375 Z M 231.355469 19.042969 " clip-rule="nonzero"/></clipPath></defs><g mask="url(#e5b00d5122)"><g transform="matrix(1, 0, 0, 1, 133, 211)"><g clip-path="url(#e3e8a2779f)"><g clip-path="url(#a240fa1211)"><g clip-path="url(#0d32a9accc)"><g clip-path="url(#ba9df95e0c)"><g clip-path="url(#0c1d766d10)"><path fill="#000000" d="M 58.722656 8.464844 C 58.546875 8.515625 58.371094 8.570312 58.199219 8.632812 C 51.445312 11.765625 49.574219 20.339844 50.792969 27.125 C 51.589844 33.367188 56.316406 40.394531 63.257812 39.972656 C 64.261719 39.898438 65.234375 39.546875 66.097656 39.042969 C 73.304688 34.238281 74.3125 23.859375 71.066406 16.359375 C 69.375 11.40625 64.113281 6.9375 58.722656 8.464844 Z M 28.773438 16.871094 C 24.398438 18.164062 22.175781 23.574219 22.613281 27.980469 C 23.390625 36.734375 29.96875 46.097656 39.347656 46.410156 C 40.207031 46.367188 41.050781 46.160156 41.839844 45.8125 C 47.433594 43.253906 48.140625 35.988281 46.460938 30.730469 C 44.394531 23.75 38.574219 16.605469 30.777344 16.585938 C 30.066406 16.585938 29.398438 16.6875 28.773438 16.871094 Z M 84.390625 27.355469 C 76.894531 29.863281 73.726562 38.90625 74.898438 46.238281 C 75.273438 51.652344 79.855469 57.796875 85.808594 56.632812 C 93.929688 54.339844 97.132812 44.101562 95.339844 36.515625 C 94.515625 31.402344 89.972656 26.148438 84.390625 27.355469 Z M 18.148438 47 C 14.898438 47.847656 12.234375 50.65625 12.066406 54.25 C 11.621094 63.863281 20.316406 73.550781 30.15625 72.898438 C 34.230469 72.519531 36.847656 68.59375 36.839844 64.714844 C 36.804688 56.429688 30.183594 48.582031 22.121094 46.984375 C 20.785156 46.644531 19.417969 46.671875 18.148438 47.003906 Z M 56.582031 53.683594 C 50.230469 55.40625 44.648438 60.386719 41.828125 66.3125 C 38.898438 73.132812 37.015625 80.652344 37.5 88.128906 C 37.144531 93.699219 42.648438 98.519531 48.089844 97.089844 C 54.679688 95.515625 59.082031 89.492188 65.496094 87.410156 C 70.78125 85.082031 76.496094 86.632812 81.964844 87.183594 C 86.671875 87.859375 92.320312 85.59375 93.246094 80.453125 C 93.691406 75.34375 89.859375 71.054688 86.683594 67.480469 C 80.660156 61.914062 74.246094 56.082031 66.207031 53.757812 C 62.972656 52.777344 59.6875 52.84375 56.582031 53.683594 Z M 56.582031 53.683594 " fill-opacity="1" fill-rule="nonzero"/></g></g></g></g></g></g></g><g mask="url(#1f4aa2ac2e)"><g transform="matrix(1, 0, 0, 1, 237, 270)"><g clip-path="url(#e28e0ca6a3)"><g clip-path="url(#b51bb8f47c)"><g clip-path="url(#7f51688a90)"><g clip-path="url(#db4f131db6)"><g clip-path="url(#9de8717c95)"><path fill="#000000" d="M 82.375 17.753906 C 82.203125 17.703125 82.023438 17.660156 81.84375 17.617188 C 74.457031 16.683594 68.3125 22.949219 65.742188 29.347656 C 63.09375 35.054688 63.359375 43.519531 69.46875 46.855469 C 70.359375 47.324219 71.363281 47.542969 72.367188 47.574219 C 81.023438 47.339844 87.398438 39.082031 88.636719 31.003906 C 89.835938 25.910156 87.753906 19.328125 82.375 17.753906 Z M 52.539062 8.953125 C 48.148438 7.722656 43.386719 11.125 41.414062 15.089844 C 37.421875 22.914062 38.015625 34.34375 45.792969 39.59375 C 46.542969 40.015625 47.371094 40.289062 48.222656 40.410156 C 54.320312 41.21875 58.78125 35.441406 60.15625 30.09375 C 62.113281 23.085938 60.984375 13.9375 54.390625 9.777344 C 53.785156 9.402344 53.167969 9.128906 52.539062 8.953125 Z M 94.074219 47.402344 C 86.390625 45.542969 78.898438 51.515625 75.996094 58.347656 C 73.4375 63.132812 74.050781 70.773438 79.710938 72.953125 C 87.804688 75.328125 95.964844 68.359375 98.476562 60.980469 C 100.5 56.210938 99.441406 49.347656 94.074219 47.402344 Z M 27.523438 28.824219 C 24.320312 27.8125 20.570312 28.773438 18.519531 31.730469 C 13.03125 39.636719 15.246094 52.464844 23.925781 57.140625 C 27.578125 58.988281 31.882812 57.050781 33.9375 53.765625 C 38.3125 46.730469 36.875 36.558594 30.894531 30.921875 C 29.945312 29.921875 28.773438 29.222656 27.523438 28.824219 Z M 56.523438 54.917969 C 50.226562 53 42.851562 54.246094 37.3125 57.773438 C 31.207031 61.988281 25.613281 67.355469 22.050781 73.945312 C 18.785156 78.476562 20.886719 85.484375 26.253906 87.167969 C 32.671875 89.335938 39.605469 86.578125 46.140625 88.21875 C 51.859375 89.058594 55.875 93.410156 60.210938 96.785156 C 63.839844 99.863281 69.828125 100.945312 73.347656 97.082031 C 76.4375 92.992188 75.472656 87.324219 74.679688 82.605469 C 72.542969 74.6875 70.210938 66.339844 64.636719 60.09375 C 62.417969 57.546875 59.597656 55.855469 56.523438 54.917969 Z M 56.523438 54.917969 " fill-opacity="1" fill-rule="nonzero"/></g></g></g></g></g></g></g><g mask="url(#e3e429f121)"><g transform="matrix(1, 0, 0, 1, 213, 135)"><g clip-path="url(#2b7518fe90)"><g clip-path="url(#ca419db359)"><g clip-path="url(#1e722e81eb)"><g clip-path="url(#d1359d1c03)"><g clip-path="url(#79e61e4fa0)"><path fill="#000000" d="M 84.835938 21.023438 C 84.664062 20.964844 84.484375 20.910156 84.308594 20.863281 C 76.96875 19.601562 70.554688 25.589844 67.703125 31.867188 C 64.808594 37.453125 64.699219 45.917969 70.652344 49.519531 C 71.519531 50.03125 72.515625 50.292969 73.515625 50.367188 C 82.175781 50.515625 88.910156 42.550781 90.5 34.535156 C 91.925781 29.496094 90.136719 22.832031 84.835938 21.023438 Z M 55.417969 10.910156 C 51.082031 9.484375 46.175781 12.671875 44.03125 16.546875 C 39.695312 24.1875 39.78125 35.632812 47.324219 41.21875 C 48.054688 41.675781 48.867188 41.984375 49.710938 42.144531 C 55.765625 43.222656 60.480469 37.648438 62.089844 32.367188 C 64.355469 25.449219 63.632812 16.261719 57.230469 11.8125 C 56.640625 11.410156 56.035156 11.113281 55.417969 10.910156 Z M 95.210938 51.15625 C 87.617188 48.957031 79.867188 54.59375 76.664062 61.292969 C 73.894531 65.960938 74.171875 73.621094 79.730469 76.046875 C 87.714844 78.777344 96.171875 72.179688 99.007812 64.917969 C 101.238281 60.242188 100.488281 53.335938 95.210938 51.15625 Z M 29.546875 29.65625 C 26.390625 28.5 22.605469 29.296875 20.421875 32.160156 C 14.589844 39.816406 16.234375 52.726562 24.699219 57.785156 C 28.269531 59.792969 32.652344 58.046875 34.851562 54.855469 C 39.535156 48.019531 38.546875 37.796875 32.820312 31.898438 C 31.917969 30.859375 30.777344 30.105469 29.542969 29.65625 Z M 57.363281 57.003906 C 51.160156 54.8125 43.734375 55.730469 38.046875 59.007812 C 31.757812 62.945312 25.933594 68.0625 22.082031 74.488281 C 18.621094 78.871094 20.410156 85.964844 25.699219 87.886719 C 32.015625 90.332031 39.0625 87.882812 45.519531 89.816406 C 51.195312 90.90625 55.011719 95.429688 59.195312 98.992188 C 62.6875 102.226562 68.621094 103.574219 72.308594 99.871094 C 75.574219 95.921875 74.863281 90.214844 74.28125 85.46875 C 72.492188 77.464844 70.53125 69.019531 65.238281 62.535156 C 63.136719 59.890625 60.394531 58.074219 57.363281 57.003906 Z M 57.363281 57.003906 " fill-opacity="1" fill-rule="nonzero"/></g></g></g></g></g></g></g><g mask="url(#f9768d191b)"><g transform="matrix(1, 0, 0, 1, 111, 84)"><g clip-path="url(#6267311b30)"><g clip-path="url(#3aaf84a4d8)"><g clip-path="url(#2c1769e42a)"><g clip-path="url(#a9d5e3600e)"><g clip-path="url(#d7ee631790)"><path fill="#000000" d="M 58.394531 7.527344 C 58.222656 7.578125 58.042969 7.632812 57.871094 7.691406 C 51.089844 10.769531 49.144531 19.324219 50.308594 26.121094 C 51.050781 32.371094 55.714844 39.4375 62.664062 39.074219 C 63.667969 39.007812 64.640625 38.667969 65.507812 38.167969 C 72.757812 33.425781 73.855469 23.054688 70.671875 15.527344 C 69.023438 10.558594 63.800781 6.050781 58.394531 7.527344 Z M 28.375 15.679688 C 23.988281 16.9375 21.71875 22.328125 22.121094 26.738281 C 22.820312 35.496094 29.320312 44.917969 38.699219 45.304688 C 39.558594 45.273438 40.40625 45.070312 41.195312 44.730469 C 46.808594 42.222656 47.578125 34.960938 45.945312 29.6875 C 43.9375 22.691406 38.179688 15.496094 30.382812 15.410156 C 29.671875 15.40625 29.003906 15.5 28.375 15.679688 Z M 83.902344 26.636719 C 76.382812 29.082031 73.136719 38.097656 74.25 45.4375 C 74.578125 50.855469 79.109375 57.039062 85.070312 55.925781 C 93.210938 53.703125 96.503906 43.492188 94.773438 35.890625 C 93.992188 30.769531 89.492188 25.476562 83.902344 26.636719 Z M 17.492188 45.71875 C 14.238281 46.535156 11.550781 49.320312 11.351562 52.914062 C 10.824219 62.527344 19.4375 72.285156 29.28125 71.71875 C 33.359375 71.371094 36.007812 67.46875 36.035156 63.59375 C 36.070312 55.304688 29.515625 47.398438 21.464844 45.738281 C 20.132812 45.382812 18.769531 45.402344 17.492188 45.71875 Z M 55.871094 52.726562 C 49.503906 54.398438 43.878906 59.328125 41.011719 65.234375 C 38.019531 72.023438 36.074219 79.527344 36.496094 87.007812 C 36.089844 92.574219 41.554688 97.441406 47.011719 96.0625 C 53.609375 94.542969 58.066406 88.558594 64.496094 86.527344 C 69.800781 84.246094 75.503906 85.84375 80.964844 86.441406 C 85.667969 87.160156 91.335938 84.941406 92.304688 79.808594 C 92.792969 74.703125 89 70.382812 85.851562 66.78125 C 79.878906 61.160156 73.511719 55.277344 65.492188 52.882812 C 62.265625 51.875 58.980469 51.914062 55.871094 52.726562 Z M 55.871094 52.726562 " fill-opacity="1" fill-rule="nonzero"/></g></g></g></g></g></g></g><g clip-path="url(#53a4787599)"><g clip-path="url(#f1cef55d81)"><g clip-path="url(#09ffb983fd)"><g clip-path="url(#5592af9e87)"><path fill="#000000" d="M 288.394531 37.273438 C 288.222656 37.21875 288.042969 37.171875 287.863281 37.128906 C 280.484375 36.117188 274.28125 42.320312 271.640625 48.691406 C 268.9375 54.371094 269.117188 62.839844 275.1875 66.234375 C 276.074219 66.714844 277.078125 66.945312 278.078125 66.984375 C 286.738281 66.839844 293.195312 58.648438 294.515625 50.582031 C 295.773438 45.503906 293.757812 38.902344 288.394531 37.273438 Z M 258.652344 28.164062 C 254.273438 26.886719 249.476562 30.238281 247.464844 34.179688 C 243.390625 41.964844 243.863281 53.402344 251.589844 58.730469 C 252.335938 59.160156 253.160156 59.441406 254.007812 59.574219 C 260.097656 60.445312 264.617188 54.714844 266.046875 49.378906 C 268.078125 42.390625 267.042969 33.234375 260.492188 29.003906 C 259.894531 28.621094 259.277344 28.34375 258.652344 28.164062 Z M 299.785156 67.039062 C 292.121094 65.097656 284.570312 70.992188 281.597656 77.796875 C 278.988281 82.554688 279.523438 90.203125 285.160156 92.441406 C 293.230469 94.898438 301.460938 88.015625 304.050781 80.664062 C 306.121094 75.914062 305.136719 69.039062 299.785156 67.039062 Z M 233.429688 47.773438 C 230.238281 46.730469 226.480469 47.652344 224.398438 50.585938 C 218.828125 58.4375 220.910156 71.285156 229.539062 76.050781 C 233.175781 77.9375 237.5 76.046875 239.585938 72.78125 C 244.035156 65.789062 242.703125 55.605469 236.78125 49.90625 C 235.84375 48.898438 234.679688 48.183594 233.429688 47.777344 Z M 262.160156 74.164062 C 255.886719 72.183594 248.496094 73.355469 242.921875 76.820312 C 236.769531 80.972656 231.125 86.285156 227.492188 92.835938 C 224.183594 97.332031 226.207031 104.359375 231.5625 106.101562 C 237.957031 108.335938 244.914062 105.648438 251.4375 107.359375 C 257.144531 108.257812 261.113281 112.648438 265.414062 116.066406 C 269.011719 119.183594 274.988281 120.328125 278.546875 116.5 C 281.679688 112.441406 280.773438 106.765625 280.03125 102.039062 C 277.972656 94.097656 275.726562 85.726562 270.21875 79.425781 C 268.027344 76.855469 265.226562 75.132812 262.160156 74.164062 Z M 262.160156 74.164062 " fill-opacity="1" fill-rule="nonzero"/></g></g></g></g></svg>